<svg width="24" height="24" viewBox="0 0 24 24" fill="none" xmlns="http://www.w3.org/2000/svg">
<g id="Arrows / lower right arrow" opacity="0.9">
<path id="Vector" d="M6.00019 7C6.00019 7.26521 6.10554 7.51957 6.29308 7.70711C6.48061 7.89464 6.73497 8 7.00019 8L14.5902 8L6.29019 16.29C6.10188 16.4783 5.99609 16.7337 5.99609 17C5.99609 17.2663 6.10188 17.5217 6.29019 17.71C6.47849 17.8983 6.73388 18.0041 7.00019 18.0041C7.26649 18.0041 7.52188 17.8983 7.71019 17.71L16.0002 9.41L16.0002 17C16.0002 17.2652 16.1055 17.5196 16.2931 17.7071C16.4806 17.8946 16.735 18 17.0002 18C17.2654 18 17.5198 17.8946 17.7073 17.7071C17.8948 17.5196 18.0002 17.2652 18.0002 17L18.0002 7C17.9986 6.86932 17.9714 6.74022 17.9202 6.62C17.8187 6.37565 17.6245 6.18147 17.3802 6.08C17.26 6.02876 17.1309 6.00158 17.0002 6L7.00018 6C6.73497 6 6.48061 6.10535 6.29308 6.29289C6.10554 6.48043 6.00018 6.73478 6.00019 7Z" fill="#FF9900"/>
</g>
</svg>
