<svg width="42" height="44" viewBox="0 0 42 44" fill="none" xmlns="http://www.w3.org/2000/svg">
<path d="M42 22.7022L22.6441 41.7925C20.787 43.2642 18.6919 44 16.3588 44C15.4064 44 14.4303 43.8576 13.4304 43.5727C12.3828 43.2879 11.5257 42.9081 10.8591 42.4334L-4.45363e-07 33.7531L-2.7888e-07 16.4707L12.6447 27.2658C13.0732 27.6456 13.6208 28.0016 14.2874 28.3339C14.9065 28.6188 15.5493 28.7612 16.2159 28.7612C16.7397 28.7612 17.4063 28.6425 18.2158 28.4051C19.0252 28.1678 19.9061 27.0275 20.8585 26.1255L42 -1.84637e-06L42 22.7022Z" fill="#FF7A00"/>
<path d="M22.6156 41.7925L42 22.7022L42 -1.84637e-06L12.6826 35.6157C11.7289 36.5177 11.0083 37.4307 10.1976 37.668C9.38695 37.9054 8.95618 37.9572 8.43163 37.9572C7.76403 37.9572 6.98621 37.8371 6.2635 37.5968C5.54079 37.3566 5.29988 37.2365 4.45672 36.756C3.61355 36.2755 -4.45363e-07 33.753 -4.45363e-07 33.753L9.03387 41.0802L10.8133 42.4334C11.4809 42.9081 12.3393 43.2879 13.3884 43.5727C14.3898 43.8576 15.3673 44 16.3211 44C18.6577 44 20.7559 43.2642 22.6156 41.7925Z" fill="#FF9900"/>
</svg>
