<svg width="163" height="68" viewBox="0 0 163 68" fill="none" xmlns="http://www.w3.org/2000/svg">
<path d="M55.8643 24.4584L35.0385 45.0253C33.0404 46.6108 30.7862 47.4036 28.2758 47.4036C27.2512 47.4036 26.2009 47.2501 25.1251 46.9433C23.998 46.6364 23.0758 46.2272 22.3585 45.7158L10.6748 36.364L10.6748 17.7449L24.2797 29.375C24.7408 29.7841 25.33 30.1677 26.0472 30.5257C26.7132 30.8326 27.4049 30.986 28.1221 30.986C28.6857 30.986 29.4029 30.8582 30.2739 30.6024C31.1448 30.3467 32.0926 29.1183 33.1172 28.1465L55.8643 0.000142983L55.8643 24.4584Z" fill="#FF7A00"/>
<path d="M0.84653 59.5589C10.423 63.8294 -1.61227 67.649 4.59946 66.9686C10.8112 66.2882 49.5044 64.8647 58.3931 66.9686C67.2817 69.0725 48.7684 55.123 57.5277 51.1473C66.2871 47.1717 -8.72993 55.2884 0.84653 59.5589Z" fill="url(#paint0_linear_1391_77)"/>
<path d="M35.0381 45.0253L55.8639 24.4584L55.8639 0.000142986L24.3664 38.3708C23.3418 39.3425 22.5676 40.3261 21.6966 40.5818C20.8257 40.8375 20.3629 40.8933 19.7993 40.8933C19.0821 40.8933 18.2464 40.7639 17.47 40.5051C16.6935 40.2463 16.4347 40.1169 15.5288 39.5992C14.623 39.0816 10.7407 36.364 10.7407 36.364L20.4464 44.2579L22.3581 45.7158C23.0754 46.2272 23.9975 46.6364 25.1246 46.9433C26.2005 47.2501 27.2508 47.4036 28.2754 47.4036C30.7858 47.4036 33.04 46.6108 35.0381 45.0253Z" fill="#FF9900"/>
<path d="M82.7894 29.3945V17.8062H84.612V22.6931H90.0241V17.8062H91.8387V29.3945H90.0241V24.1416H84.612V29.3945H82.7894ZM93.8046 26.9432C93.8046 26.073 94.1468 25.4044 94.8313 24.9375C95.5158 24.4706 96.3833 24.2371 97.4339 24.2371H99.2326V23.6879C99.2326 23.2263 99.1132 22.8549 98.8745 22.5737C98.641 22.2872 98.2324 22.1439 97.6488 22.1439C97.0651 22.1439 96.6459 22.2633 96.3913 22.5021C96.1419 22.7355 96.0172 23.0167 96.0172 23.3457V23.4173H94.2742V23.3377C94.2742 22.648 94.5872 22.059 95.2133 21.5708C95.8394 21.0827 96.6698 20.8386 97.7045 20.8386C98.7445 20.8386 99.5536 21.0747 100.132 21.547C100.71 22.0192 101 22.7355 101 23.6959V27.5003C101 27.8399 101.026 28.1635 101.079 28.4713C101.137 28.7737 101.214 29.039 101.31 29.2672V29.3945H99.5987C99.5244 29.2672 99.4581 29.1 99.3998 28.8931C99.3467 28.6809 99.3122 28.4739 99.2963 28.2723C99.1106 28.6066 98.7949 28.9037 98.3492 29.1637C97.9088 29.4184 97.3437 29.5458 96.6539 29.5458C95.858 29.5458 95.1841 29.3256 94.6323 28.8852C94.0805 28.4448 93.8046 27.7974 93.8046 26.9432ZM95.5635 26.8238C95.5635 27.2642 95.6909 27.6117 95.9456 27.8664C96.2002 28.1211 96.5982 28.2484 97.1394 28.2484C97.6912 28.2484 98.1767 28.0627 98.5959 27.6913C99.0204 27.3146 99.2326 26.9034 99.2326 26.4577V25.3991H97.6567C96.9617 25.3991 96.439 25.5265 96.0888 25.7812C95.7386 26.0358 95.5635 26.3834 95.5635 26.8238ZM103.212 32.7134V21.0694H104.836L104.891 22.1121H104.931C105.133 21.7725 105.451 21.4886 105.886 21.2604C106.321 21.027 106.818 20.9103 107.375 20.9103C108.436 20.9103 109.285 21.3002 109.922 22.0802C110.564 22.8602 110.885 23.8683 110.885 25.1046V25.3593C110.885 26.5903 110.566 27.5985 109.929 28.3837C109.298 29.1637 108.454 29.5537 107.399 29.5537C106.841 29.5537 106.356 29.4556 105.942 29.2592C105.528 29.0576 105.205 28.7896 104.971 28.4554V32.7134H103.212ZM104.971 26.8317C105.12 27.1819 105.369 27.4923 105.719 27.7629C106.069 28.0335 106.489 28.1688 106.977 28.1688C107.698 28.1688 108.229 27.9089 108.569 27.3889C108.913 26.8689 109.086 26.2056 109.086 25.3991V25.0569C109.086 24.2504 108.913 23.5898 108.569 23.0751C108.229 22.5551 107.698 22.2951 106.977 22.2951C106.478 22.2951 106.056 22.4304 105.711 22.701C105.372 22.9716 105.125 23.2794 104.971 23.6243V26.8317ZM112.15 25.3593V25.1046C112.15 23.8312 112.519 22.8018 113.256 22.0166C113.999 21.226 114.981 20.8307 116.201 20.8307C117.416 20.8307 118.393 21.226 119.13 22.0166C119.873 22.8018 120.244 23.8312 120.244 25.1046V25.3593C120.244 26.6328 119.873 27.6648 119.13 28.4554C118.393 29.2407 117.416 29.6333 116.201 29.6333C114.981 29.6333 113.999 29.2407 113.256 28.4554C112.519 27.6648 112.15 26.6328 112.15 25.3593ZM113.949 25.0569V25.3991C113.949 26.2322 114.14 26.914 114.522 27.4446C114.904 27.9752 115.464 28.2405 116.201 28.2405C116.939 28.2405 117.496 27.9752 117.873 27.4446C118.255 26.914 118.446 26.2322 118.446 25.3991V25.0569C118.446 24.2292 118.255 23.55 117.873 23.0194C117.491 22.4888 116.933 22.2235 116.201 22.2235C115.469 22.2235 114.909 22.4888 114.522 23.0194C114.14 23.55 113.949 24.2292 113.949 25.0569ZM128.347 31.5435V29.3945H122.576V31.5435H120.961V28.0415H129.962V31.5435H128.347ZM124.144 22.4225L124.025 25.2001C123.993 25.9642 123.94 26.5691 123.866 27.0148C123.791 27.4605 123.683 27.8505 123.539 28.1848H121.757C121.937 27.9248 122.086 27.5454 122.202 27.0466C122.319 26.5426 122.399 25.8156 122.441 24.8659L122.608 21.0694H128.737V29.3945H126.978V22.4225H124.144ZM131.228 21.0694H132.987V24.4679H136.441V21.0694H138.2V29.3945H136.441V25.8209H132.987V29.3945H131.228V21.0694ZM142.187 21.0694V23.863H144.081C145.132 23.863 145.936 24.1124 146.493 24.6112C147.056 25.1046 147.337 25.7758 147.337 26.6248C147.337 27.4791 147.056 28.1556 146.493 28.6543C145.936 29.1478 145.132 29.3945 144.081 29.3945H140.428V21.0694H142.187ZM143.938 25.1604H142.187V28.0972H143.938C144.538 28.0972 144.96 27.9619 145.204 27.6913C145.448 27.4154 145.57 27.0572 145.57 26.6168C145.57 26.1871 145.448 25.8369 145.204 25.5663C144.96 25.2957 144.538 25.1604 143.938 25.1604ZM148.363 29.3945V21.0694H150.13V29.3945H148.363ZM152.367 29.3945V21.0694H154.11V25.8767C154.11 26.0358 154.107 26.2215 154.102 26.4338C154.097 26.6407 154.089 26.8238 154.078 26.983H154.158C154.232 26.845 154.314 26.6991 154.404 26.5452C154.495 26.386 154.595 26.2136 154.707 26.0279L157.723 21.0694H159.49V29.3945H157.747V24.5873C157.747 24.4228 157.75 24.2345 157.755 24.0222C157.766 23.81 157.776 23.6216 157.787 23.4571H157.683C157.614 23.5951 157.535 23.7463 157.445 23.9108C157.36 24.0753 157.264 24.2477 157.158 24.4281L154.134 29.3945H152.367ZM155.932 18.5464C156.309 18.5464 156.625 18.4403 156.88 18.2281C157.134 18.0105 157.331 17.6603 157.469 17.1775L158.702 17.8381C158.453 18.5173 158.081 19.0107 157.588 19.3185C157.1 19.6209 156.548 19.7721 155.932 19.7721C155.317 19.7721 154.768 19.6236 154.285 19.3264C153.802 19.024 153.431 18.5279 153.171 17.8381L154.428 17.1536C154.571 17.6683 154.765 18.0291 155.009 18.236C155.253 18.443 155.561 18.5464 155.932 18.5464ZM85.7899 46.6333C84.5271 46.6333 83.5959 46.3415 82.9963 45.7578C82.402 45.1742 82.1049 44.4976 82.1049 43.7283V43.6805H83.8081V43.7283C83.8081 44.1315 83.954 44.495 84.2458 44.8187C84.543 45.137 85.0524 45.2962 85.774 45.2962C86.3736 45.2962 86.8352 45.1768 87.1588 44.938C87.4878 44.694 87.6523 44.3623 87.6523 43.9432C87.6523 43.593 87.5356 43.3144 87.3021 43.1075C87.0739 42.9005 86.7052 42.7971 86.1958 42.7971H84.8348V41.5316H85.965C86.4744 41.5316 86.8378 41.4308 87.0554 41.2292C87.2782 41.0275 87.3896 40.749 87.3896 40.3935C87.3896 40.0008 87.2543 39.6984 86.9837 39.4861C86.7131 39.2739 86.3311 39.1678 85.8376 39.1678C85.2222 39.1678 84.7579 39.3137 84.4448 39.6055C84.1318 39.8973 83.9752 40.2767 83.9752 40.7437V40.7834H82.272V40.7437C82.272 39.8522 82.5877 39.1439 83.2191 38.6186C83.8506 38.0933 84.7393 37.8307 85.8854 37.8307C86.9678 37.8307 87.7849 38.0482 88.3368 38.4833C88.8939 38.9131 89.1725 39.4967 89.1725 40.2343C89.1725 40.68 89.0212 41.0753 88.7188 41.4202C88.4217 41.7597 88.0131 41.9853 87.4931 42.0967V42.1126C88.1086 42.2028 88.5861 42.4097 88.9257 42.7334C89.2653 43.0571 89.4351 43.4762 89.4351 43.9909C89.4351 44.8399 89.0929 45.4925 88.4084 45.9488C87.7292 46.4051 86.8564 46.6333 85.7899 46.6333ZM91.3055 38.0694H93.0644V41.4679H96.5186V38.0694H98.2775V46.3945H96.5186V42.8209H93.0644V46.3945H91.3055V38.0694ZM100.06 43.9432C100.06 43.073 100.403 42.4044 101.087 41.9375C101.772 41.4706 102.639 41.2371 103.69 41.2371H105.488V40.6879C105.488 40.2263 105.369 39.8549 105.13 39.5737C104.897 39.2872 104.488 39.1439 103.905 39.1439C103.321 39.1439 102.902 39.2633 102.647 39.5021C102.398 39.7355 102.273 40.0167 102.273 40.3457V40.4173H100.53V40.3377C100.53 39.648 100.843 39.059 101.469 38.5708C102.095 38.0827 102.926 37.8386 103.96 37.8386C105 37.8386 105.809 38.0747 106.388 38.547C106.966 39.0192 107.255 39.7355 107.255 40.6959V44.5003C107.255 44.8399 107.282 45.1635 107.335 45.4713C107.393 45.7737 107.47 46.039 107.566 46.2672V46.3945H105.854C105.78 46.2672 105.714 46.1 105.656 45.8931C105.602 45.6809 105.568 45.4739 105.552 45.2723C105.366 45.6066 105.051 45.9037 104.605 46.1637C104.165 46.4184 103.599 46.5458 102.91 46.5458C102.114 46.5458 101.44 46.3256 100.888 45.8852C100.336 45.4448 100.06 44.7974 100.06 43.9432ZM101.819 43.8238C101.819 44.2642 101.947 44.6117 102.201 44.8664C102.456 45.1211 102.854 45.2484 103.395 45.2484C103.947 45.2484 104.432 45.0627 104.852 44.6913C105.276 44.3146 105.488 43.9034 105.488 43.4577V42.3991H103.913C103.217 42.3991 102.695 42.5265 102.345 42.7812C101.994 43.0358 101.819 43.3834 101.819 43.8238ZM114.896 46.3945L111.768 42.6299L112.882 41.452L116.989 46.3945H114.896ZM110.359 41.4679H111.887L114.689 38.0694H116.671L112.747 42.8209H110.359V41.4679ZM111.227 38.0694V46.3945H109.468V38.0694H111.227ZM88.0423 63.3945L84.9144 59.6299L86.0287 58.452L90.1355 63.3945H88.0423ZM83.5057 58.4679H85.0338L87.8354 55.0694H89.8171L85.8934 59.8209H83.5057V58.4679ZM84.3732 55.0694V63.3945H82.6143V55.0694H84.3732ZM90.6528 60.9432C90.6528 60.073 90.9951 59.4044 91.6795 58.9375C92.364 58.4706 93.2315 58.2371 94.2821 58.2371H96.0809V57.6879C96.0809 57.2263 95.9615 56.8549 95.7227 56.5737C95.4892 56.2872 95.0807 56.1439 94.497 56.1439C93.9134 56.1439 93.4942 56.2633 93.2395 56.5021C92.9901 56.7355 92.8654 57.0167 92.8654 57.3457V57.4173H91.1224V57.3377C91.1224 56.648 91.4355 56.059 92.0616 55.5708C92.6877 55.0827 93.5181 54.8386 94.5527 54.8386C95.5927 54.8386 96.4019 55.0747 96.9802 55.547C97.5586 56.0192 97.8478 56.7355 97.8478 57.6959V61.5003C97.8478 61.8399 97.8743 62.1635 97.9273 62.4713C97.9857 62.7737 98.0626 63.039 98.1582 63.2672V63.3945H96.447C96.3727 63.2672 96.3064 63.1 96.248 62.8931C96.1949 62.6809 96.1605 62.4739 96.1445 62.2723C95.9588 62.6066 95.6431 62.9037 95.1974 63.1637C94.757 63.4184 94.1919 63.5458 93.5021 63.5458C92.7063 63.5458 92.0324 63.3256 91.4806 62.8852C90.9287 62.4448 90.6528 61.7974 90.6528 60.9432ZM92.4118 60.8238C92.4118 61.2642 92.5391 61.6117 92.7938 61.8664C93.0485 62.1211 93.4464 62.2484 93.9876 62.2484C94.5395 62.2484 95.025 62.0627 95.4441 61.6913C95.8686 61.3146 96.0809 60.9034 96.0809 60.4577V59.3991H94.505C93.8099 59.3991 93.2873 59.5265 92.9371 59.7812C92.5869 60.0358 92.4118 60.3834 92.4118 60.8238ZM101.62 57.282C101.62 57.9241 101.745 58.3698 101.994 58.6191C102.249 58.8685 102.682 58.9932 103.292 58.9932C103.764 58.9932 104.188 58.9587 104.565 58.8897C104.942 58.8208 105.358 58.7279 105.815 58.6112V59.9483C105.369 60.0491 104.934 60.1393 104.509 60.2189C104.09 60.2932 103.546 60.3303 102.878 60.3303C101.843 60.3303 101.082 60.0916 100.594 59.614C100.105 59.1312 99.8614 58.3804 99.8614 57.3616V55.0694H101.62V57.282ZM106.69 55.0694V63.3945H104.931V55.0694H106.69ZM108.441 59.3593V59.1046C108.441 57.8365 108.799 56.8071 109.516 56.0166C110.237 55.226 111.176 54.8307 112.333 54.8307C113.495 54.8307 114.394 55.2021 115.031 55.9449C115.668 56.6825 115.986 57.6879 115.986 58.9614V59.6379H109.571V58.3804H114.235V58.1973C114.235 57.6402 114.073 57.168 113.75 56.7806C113.431 56.3933 112.972 56.1996 112.373 56.1996C111.657 56.1996 111.118 56.4702 110.757 57.0114C110.396 57.5473 110.216 58.2292 110.216 59.0569V59.3991C110.216 60.2215 110.407 60.9034 110.789 61.4446C111.171 61.9858 111.755 62.2564 112.54 62.2564C113.039 62.2564 113.469 62.1423 113.829 61.9142C114.19 61.686 114.482 61.418 114.705 61.1103L115.899 61.9619C115.633 62.397 115.212 62.7843 114.633 63.1239C114.06 63.4635 113.365 63.6333 112.548 63.6333C111.243 63.6333 110.232 63.238 109.516 62.4474C108.799 61.6568 108.441 60.6275 108.441 59.3593ZM117.196 59.3593V59.1046C117.196 57.8259 117.552 56.7939 118.263 56.0086C118.979 55.2233 119.947 54.8307 121.168 54.8307C122.314 54.8307 123.184 55.1305 123.778 55.73C124.372 56.3296 124.677 57.0167 124.693 57.7914V57.871H122.99V57.8073C122.99 57.3722 122.842 56.9982 122.544 56.6851C122.253 56.3721 121.794 56.2155 121.168 56.2155C120.435 56.2155 119.889 56.4835 119.528 57.0194C119.173 57.5553 118.995 58.2345 118.995 59.0569V59.3991C118.995 60.2215 119.17 60.9034 119.52 61.4446C119.876 61.9805 120.422 62.2484 121.16 62.2484C121.807 62.2484 122.274 62.0893 122.56 61.7709C122.847 61.4525 122.99 61.0785 122.99 60.6487V60.593H124.693V60.6566C124.693 61.4313 124.391 62.1211 123.786 62.726C123.187 63.3309 122.314 63.6333 121.168 63.6333C119.947 63.6333 118.979 63.2407 118.263 62.4554C117.552 61.6648 117.196 60.6328 117.196 59.3593ZM125.418 56.4225V55.0694H132.326V56.4225H129.755V63.3945H127.996V56.4225H125.418ZM133.679 63.3945V55.0694H137.476C138.441 55.0694 139.187 55.2525 139.712 55.6186C140.237 55.9794 140.5 56.5233 140.5 57.2502C140.5 57.7383 140.357 58.1416 140.07 58.46C139.784 58.773 139.396 58.9826 138.908 59.0887V59.1126C139.502 59.1975 139.964 59.4044 140.293 59.7334C140.627 60.0571 140.794 60.4815 140.794 61.0068C140.794 61.7603 140.521 62.3466 139.975 62.7658C139.433 63.1849 138.688 63.3945 137.738 63.3945H133.679ZM135.422 58.5396H137.332C137.826 58.5396 138.181 58.4387 138.399 58.2371C138.616 58.0302 138.725 57.7463 138.725 57.3855C138.725 57.0459 138.616 56.7833 138.399 56.5976C138.181 56.4118 137.826 56.319 137.332 56.319H135.422V58.5396ZM135.422 62.145H137.571C138.075 62.145 138.444 62.0362 138.677 61.8187C138.911 61.6011 139.028 61.3119 139.028 60.9511C139.028 60.5956 138.911 60.3118 138.677 60.0995C138.449 59.882 138.08 59.7732 137.571 59.7732H135.422V62.145ZM142.259 60.9432C142.259 60.073 142.601 59.4044 143.286 58.9375C143.97 58.4706 144.838 58.2371 145.888 58.2371H147.687V57.6879C147.687 57.2263 147.568 56.8549 147.329 56.5737C147.095 56.2872 146.687 56.1439 146.103 56.1439C145.519 56.1439 145.1 56.2633 144.846 56.5021C144.596 56.7355 144.471 57.0167 144.471 57.3457V57.4173H142.728V57.3377C142.728 56.648 143.042 56.059 143.668 55.5708C144.294 55.0827 145.124 54.8386 146.159 54.8386C147.199 54.8386 148.008 55.0747 148.586 55.547C149.165 56.0192 149.454 56.7355 149.454 57.6959V61.5003C149.454 61.8399 149.48 62.1635 149.533 62.4713C149.592 62.7737 149.669 63.039 149.764 63.2672V63.3945H148.053C147.979 63.2672 147.912 63.1 147.854 62.8931C147.801 62.6809 147.767 62.4739 147.751 62.2723C147.565 62.6066 147.249 62.9037 146.803 63.1637C146.363 63.4184 145.798 63.5458 145.108 63.5458C144.312 63.5458 143.638 63.3256 143.087 62.8852C142.535 62.4448 142.259 61.7974 142.259 60.9432ZM144.018 60.8238C144.018 61.2642 144.145 61.6117 144.4 61.8664C144.655 62.1211 145.052 62.2484 145.594 62.2484C146.146 62.2484 146.631 62.0627 147.05 61.6913C147.475 61.3146 147.687 60.9034 147.687 60.4577V59.3991H146.111C145.416 59.3991 144.893 59.5265 144.543 59.7812C144.193 60.0358 144.018 60.3834 144.018 60.8238Z" fill="#3A4046"/>
<defs>
<linearGradient id="paint0_linear_1391_77" x1="7.9642" y1="67.9705" x2="30.3519" y2="54.512" gradientUnits="userSpaceOnUse">
<stop stop-color="#FF7A00"/>
<stop offset="1" stop-color="#FF9900"/>
</linearGradient>
</defs>
</svg>
