<svg width="18" height="18" viewBox="0 0 18 18" fill="none" xmlns="http://www.w3.org/2000/svg">
<rect width="18" height="18" rx="9" fill="#373C3F"/>
<path d="M9.00008 4.81506C9.70719 4.81506 10.2824 5.39024 10.2824 6.09735C10.2824 6.80386 9.70704 7.37904 9.00008 7.37904C8.29341 7.37904 7.71809 6.80386 7.71809 6.09735C7.71794 5.39009 8.29356 4.81506 9.00008 4.81506ZM9.00008 9.19321C10.7081 9.19321 12.0971 7.80464 12.0971 6.09735C12.0971 4.38917 10.7083 3 9.00008 3C7.2922 3 5.90303 4.38931 5.90303 6.09735C5.90303 7.80464 7.2922 9.19321 9.00008 9.19321ZM10.253 11.7194C10.8901 11.5743 11.4981 11.3225 12.0513 10.9748C12.255 10.8466 12.3994 10.6428 12.4528 10.4082C12.5062 10.1736 12.4642 9.92742 12.3361 9.72376C12.2727 9.62282 12.1901 9.53536 12.0929 9.46639C11.9957 9.39741 11.8858 9.34828 11.7696 9.32179C11.6534 9.2953 11.5332 9.29198 11.4157 9.31201C11.2982 9.33204 11.1858 9.37504 11.0849 9.43855C9.81615 10.2362 8.18312 10.2356 6.91537 9.43855C6.81453 9.37503 6.70215 9.33202 6.58467 9.31197C6.4672 9.29193 6.34692 9.29525 6.23072 9.32174C6.11453 9.34823 6.00469 9.39737 5.90751 9.46636C5.81033 9.53534 5.7277 9.62281 5.66436 9.72376C5.53619 9.92737 5.49415 10.1735 5.54747 10.4081C5.60079 10.6427 5.74511 10.8466 5.94869 10.9748C6.50184 11.3224 7.10973 11.5741 7.7467 11.7194L6.0154 13.451C5.84526 13.6212 5.7497 13.852 5.74974 14.0927C5.74978 14.3333 5.84542 14.5641 6.01562 14.7342C6.18582 14.9044 6.41663 14.9999 6.65729 14.9999C6.89794 14.9998 7.12873 14.9042 7.29887 14.734L8.99978 13.0328L10.7017 14.7342C10.7859 14.8184 10.8858 14.8853 10.9958 14.9309C11.1059 14.9765 11.2238 15 11.3429 15C11.462 15 11.5799 14.9765 11.6899 14.9309C11.7999 14.8853 11.8999 14.8184 11.984 14.7342C12.0684 14.65 12.1354 14.55 12.1811 14.44C12.2268 14.3299 12.2503 14.2119 12.2503 14.0927C12.2503 13.9735 12.2268 13.8555 12.1811 13.7455C12.1354 13.6354 12.0684 13.5354 11.984 13.4513L10.253 11.7194Z" fill="white"/>
</svg>
