<svg width="18" height="18" viewBox="0 0 18 18" fill="none" xmlns="http://www.w3.org/2000/svg">
<rect width="18" height="18" rx="9" fill="#373C3F"/>
<path fill-rule="evenodd" clip-rule="evenodd" d="M14.7247 6.20057C14.8081 5.92244 14.7247 5.71802 14.3276 5.71802H13.0148C12.681 5.71802 12.5272 5.89459 12.4438 6.08935C12.4438 6.08935 11.7761 7.71658 10.8303 8.77357C10.5244 9.07955 10.3853 9.17679 10.2184 9.17679C10.1349 9.17679 10.0141 9.07955 10.0141 8.80143V6.20057C10.0141 5.86674 9.91727 5.71802 9.63905 5.71802H7.57607C7.36752 5.71802 7.24205 5.87293 7.24205 6.01978C7.24205 6.33626 7.71485 6.40921 7.76361 7.29929V9.23259C7.76361 9.65644 7.68709 9.73333 7.52018 9.73333C7.07514 9.73333 5.99264 8.0987 5.35049 6.22842C5.22464 5.86486 5.09843 5.71802 4.76291 5.71802H3.45011C3.07502 5.71802 3 5.89459 3 6.08935C3 6.43706 3.44513 8.16171 5.07236 10.4426C6.1573 12.0002 7.68559 12.8447 9.07642 12.8447C9.91099 12.8447 10.0141 12.6571 10.0141 12.3341V11.1568C10.0141 10.7817 10.0932 10.7069 10.3573 10.7069C10.5522 10.7069 10.8859 10.8042 11.6649 11.5552C12.555 12.4452 12.7016 12.8447 13.2024 12.8447H14.5152C14.8903 12.8447 15.0778 12.6571 14.9696 12.287C14.8513 11.9181 14.4263 11.3831 13.8623 10.7486C13.5564 10.3869 13.0974 9.99749 12.9584 9.80281C12.7636 9.55244 12.8192 9.44123 12.9584 9.2188C12.9584 9.2188 14.5578 6.96565 14.7247 6.20066V6.20057Z" fill="white"/>
</svg>
